<svg xmlns="http://www.w3.org/2000/svg" xmlns:xlink="http://www.w3.org/1999/xlink" width="500" zoomAndPan="magnify" viewBox="0 0 375 374.999991" height="500" preserveAspectRatio="xMidYMid meet" version="1.0"><defs><g/><clipPath id="9b05e31db7"><path d="M 33.257812 9.609375 L 342.257812 9.609375 L 342.257812 365.109375 L 33.257812 365.109375 Z M 33.257812 9.609375 " clip-rule="nonzero"/></clipPath></defs><g clip-path="url(#9b05e31db7)"><path fill="#ffffff" d="M 43.964844 104.484375 L 187.757812 21.484375 L 331.554688 104.484375 L 331.554688 270.480469 L 187.757812 353.554688 L 43.964844 270.480469 L 43.964844 104.484375 M 33.257812 98.273438 L 33.257812 276.691406 L 187.757812 365.898438 L 342.257812 276.691406 L 342.257812 98.273438 L 187.757812 9.066406 Z M 33.257812 98.273438 " fill-opacity="1" fill-rule="nonzero"/></g><g fill="#ffffff" fill-opacity="1"><g transform="translate(83.526776, 242.687811)"><g><path d="M 50.28125 -33.203125 L 50.28125 0 L 30.03125 0 L 30.03125 -33.203125 L -1.625 -87.3125 L 16.234375 -87.3125 C 17.992188 -87.3125 19.382812 -86.898438 20.40625 -86.078125 C 21.425781 -85.265625 22.273438 -84.21875 22.953125 -82.9375 L 35.296875 -57.53125 C 36.335938 -55.53125 37.273438 -53.660156 38.109375 -51.921875 C 38.953125 -50.191406 39.691406 -48.488281 40.328125 -46.8125 C 40.929688 -48.519531 41.617188 -50.242188 42.390625 -51.984375 C 43.171875 -53.722656 44.082031 -55.570312 45.125 -57.53125 L 57.359375 -82.9375 C 57.628906 -83.457031 57.960938 -83.976562 58.359375 -84.5 C 58.765625 -85.019531 59.238281 -85.488281 59.78125 -85.90625 C 60.320312 -86.320312 60.941406 -86.660156 61.640625 -86.921875 C 62.335938 -87.179688 63.101562 -87.3125 63.9375 -87.3125 L 81.921875 -87.3125 Z M 50.28125 -33.203125 "/></g></g></g><g fill="#ffffff" fill-opacity="1"><g transform="translate(163.824618, 242.687811)"><g><path d="M 127.40625 -87.3125 L 100.4375 0 L 82.109375 0 L 65.6875 -54.109375 C 65.363281 -54.953125 65.0625 -55.882812 64.78125 -56.90625 C 64.5 -57.925781 64.21875 -58.992188 63.9375 -60.109375 C 63.664062 -58.992188 63.390625 -57.925781 63.109375 -56.90625 C 62.828125 -55.882812 62.523438 -54.953125 62.203125 -54.109375 L 45.546875 0 L 27.203125 0 L 0.234375 -87.3125 L 17.265625 -87.3125 C 19.015625 -87.3125 20.476562 -86.910156 21.65625 -86.109375 C 22.84375 -85.316406 23.613281 -84.257812 23.96875 -82.9375 L 35.953125 -37.390625 C 36.316406 -35.953125 36.675781 -34.382812 37.03125 -32.6875 C 37.394531 -30.988281 37.753906 -29.222656 38.109375 -27.390625 C 38.828125 -31.140625 39.707031 -34.472656 40.75 -37.390625 L 54.890625 -82.9375 C 55.253906 -84.0625 56.023438 -85.070312 57.203125 -85.96875 C 58.378906 -86.863281 59.804688 -87.3125 61.484375 -87.3125 L 67.484375 -87.3125 C 69.242188 -87.3125 70.660156 -86.898438 71.734375 -86.078125 C 72.816406 -85.265625 73.632812 -84.21875 74.1875 -82.9375 L 88.21875 -37.390625 C 89.257812 -34.597656 90.140625 -31.425781 90.859375 -27.875 C 91.171875 -29.664062 91.492188 -31.347656 91.828125 -32.921875 C 92.171875 -34.503906 92.523438 -35.992188 92.890625 -37.390625 L 104.875 -82.9375 C 105.195312 -84.101562 105.957031 -85.125 107.15625 -86 C 108.351562 -86.875 109.789062 -87.3125 111.46875 -87.3125 Z M 127.40625 -87.3125 "/></g></g></g></svg>